<?xml version="1.0" encoding="utf-8"?><svg xmlns="http://www.w3.org/2000/svg" xmlns:xlink="http://www.w3.org/1999/xlink" width="1441" height="742" preserveAspectRatio="xMidYMid" viewBox="0 0 1441 742" style="z-index:1;margin-right:-2px;display:block;background-repeat-y:initial;background-repeat-x:initial;background-color:rgb(255, 255, 255);animation-play-state:paused" ><g transform="" style="animation-play-state:paused" ><linearGradient id="lg-0.44375600653888014" x1="0" x2="1" y1="0" y2="0" style="animation-play-state:paused" ><stop stop-color="#ff00ff" offset="0" style="animation-play-state:paused" ></stop>

  
<stop stop-color="#00ffff" offset="1" style="animation-play-state:paused" ></stop></linearGradient>
<path d="M0 0M0 644.17578125Q144.10000610351562 611.957763671875 288.20001220703125 603.7734375T576.4000244140625 638.0343627929688T864.5999755859375 608.9252319335938T1152.800048828125 566.2880859375T1441 548.2894897460938L1441 218.8594970703125Q1296.9000244140625 202.2601318359375 1152.800048828125 200.4356689453125T864.5999755859375 157.5851593017578T576.4000244140625 127.09608459472656T288.20001220703125 98.25923156738281T0 38.39333724975586Z" fill="url(#lg-0.44375600653888014)" opacity="0.4" style="opacity:0.4000000059604645;animation-play-state:paused" ></path>
<path d="M0 0M0 680.5035400390625Q144.10000610351562 629.7152099609375 288.20001220703125 625.7546997070312T576.4000244140625 629.341552734375T864.5999755859375 623.8843994140625T1152.800048828125 556.6098022460938T1441 527.5048217773438L1441 245.00906372070312Q1296.9000244140625 202.3779296875 1152.800048828125 196.66734313964844T864.5999755859375 179.3122100830078T576.4000244140625 136.96192932128906T288.20001220703125 129.72335815429688T0 93.87572479248047Z" fill="url(#lg-0.44375600653888014)" opacity="0.4" style="opacity:0.4000000059604645;animation-play-state:paused" ></path>
<path d="M0 0M0 647.5014038085938Q144.10000610351562 649.0341796875 288.20001220703125 640.9707641601562T576.4000244140625 615.7003173828125T864.5999755859375 576.16552734375T1152.800048828125 579.87255859375T1441 523.0137939453125L1441 210.41427612304688Q1296.9000244140625 199.0369873046875 1152.800048828125 192.9627685546875T864.5999755859375 136.85781860351562T576.4000244140625 138.17086791992188T288.20001220703125 109.5656509399414T0 41.18714904785156Z" fill="url(#lg-0.44375600653888014)" opacity="0.4" style="opacity:0.4000000059604645;animation-play-state:paused" ></path>
<path d="M0 0M0 650.7021484375Q144.10000610351562 649.602783203125 288.20001220703125 645.8018188476562T576.4000244140625 640.301513671875T864.5999755859375 579.8798828125T1152.800048828125 578.115234375T1441 498.9039611816406L1441 206.81568908691406Q1296.9000244140625 200.13931274414062 1152.800048828125 198.1881866455078T864.5999755859375 124.20736694335938T576.4000244140625 166.11471557617188T288.20001220703125 129.54270935058594T0 105.77635192871094Z" fill="url(#lg-0.44375600653888014)" opacity="0.4" style="opacity:0.4000000059604645;animation-play-state:paused" ></path></g></svg>